# xmcd CD database file
#
# Track frame offsets:
#	150
#	14644
#	28571
#	44409
#	61667
#	75779
#	91434
#	104890
#	120684
#	134337
#	152741
#	173014
#	191165
#	204215
#	219549
#	236872
#	252157
#	267370
#	281897
#	299276
#	313435
#
# Disc length: 4422 seconds
#
# Revision: 0
# Processed by: cddbd v1.5.2PL0 Copyright (c) Steve Scherf et al.
# Submitted via: CDex 1.51
#
DISCID=3b114415
DTITLE=Rod Stewart - The Great American Songbook disc 2
DYEAR=1900
DGENRE=Jazz
TTITLE0=08-Smile
TTITLE1=09-My Heart Stood Still
TTITLE2=10-Someone To Watch Over Me
TTITLE3=11-As Time Goes By
TTITLE4=12-I Only Have Eyes For You
TTITLE5=13-Crazy She Calls Me
TTITLE6=14-Our Love Is Here To Stay
TTITLE7=01-Embraceable You
TTITLE8=02-For Sentimental Reasons
TTITLE9=03-Blue Moon (Feat. Eric Clapton)
TTITLE10=04-What A Wonderful World (Feat. Stevie Wonder)
TTITLE11=05-Stardust
TTITLE12=06-Manhattan (featuring Bette Midler)
TTITLE13=07-S Wonderful
TTITLE14=08-Isn't It Romantic
TTITLE15=09-I Can't Get Started
TTITLE16=10-But Not For Me
TTITLE17=11-A Kiss To Build A Dream On
TTITLE18=12-Baby, It's Cold Outside (featuring Dolly Parton)
TTITLE19=13-Night And Day
TTITLE20=14-A Nightingale Sang In Berkeley Square
EXTD=
EXTT0=
EXTT1=
EXTT2=
EXTT3=
EXTT4=
EXTT5=
EXTT6=
EXTT7=
EXTT8=
EXTT9=
EXTT10=
EXTT11=
EXTT12=
EXTT13=
EXTT14=
EXTT15=
EXTT16=
EXTT17=
EXTT18=
EXTT19=
EXTT20=
PLAYORDER=
